<?xml version="1.0" standalone="no"?>
<!DOCTYPE svg PUBLIC "-//W3C//DTD SVG 20010904//EN"
 "http://www.w3.org/TR/2001/REC-SVG-20010904/DTD/svg10.dtd">
<svg version="1.0" xmlns="http://www.w3.org/2000/svg"
 width="1300.000000pt" height="1300.000000pt" viewBox="0 0 1300.000000 1300.000000"
 preserveAspectRatio="xMidYMid meet">
<g transform="translate(0.000000,1300.000000) scale(0.100000,-0.100000)"
fill="#000000" stroke="none">
<path d="M5680 9460 l0 -90 360 0 361 0 -4 -2702 c-4 -2819 -3 -2807 -47
-3143 -34 -262 -77 -383 -169 -475 -52 -52 -148 -102 -229 -119 -68 -14 -246
-14 -314 0 -77 16 -187 71 -231 115 -61 60 -81 108 -81 189 1 74 11 115 51
207 l26 58 190 2 190 3 23 68 c32 96 61 243 75 379 24 255 -37 444 -195 603
-115 115 -248 172 -458 196 -177 20 -399 -10 -536 -74 -245 -114 -396 -328
-438 -617 -71 -498 135 -878 598 -1103 263 -128 519 -186 900 -205 560 -29
1096 64 1468 254 651 331 978 933 1040 1914 6 105 10 948 10 2308 l0 2142 265
0 265 0 0 90 0 90 -1560 0 -1560 0 0 -90z"/>
</g>
</svg>
