<?xml version="1.0" standalone="no"?>
<!DOCTYPE svg PUBLIC "-//W3C//DTD SVG 20010904//EN"
 "http://www.w3.org/TR/2001/REC-SVG-20010904/DTD/svg10.dtd">
<svg version="1.0" xmlns="http://www.w3.org/2000/svg"
 width="670.000000pt" height="670.000000pt" viewBox="0 0 670.000000 670.000000"
 preserveAspectRatio="xMidYMid meet">
<metadata>
Created by potrace 1.11, written by Peter Selinger 2001-2013
</metadata>
<g transform="translate(0.000000,670.000000) scale(0.100000,-0.100000)"
fill="#000000" stroke="none">
<path d="M3342 6230 c-55 -12 -61 -16 -78 -56 -16 -39 -21 -40 -71 -19 -46 19
-65 19 -33 -1 l25 -15 -30 6 c-46 10 -185 6 -228 -7 -22 -7 -44 -20 -51 -30
-6 -10 -20 -18 -32 -18 -12 0 -24 -6 -27 -13 -5 -14 -92 -37 -160 -43 -46 -5
-121 -43 -197 -101 l-55 -41 -118 24 c-66 14 -124 26 -130 27 -7 1 -11 -5 -9
-14 2 -14 -3 -16 -33 -9 -20 4 -38 4 -41 -1 -3 -5 -2 -10 3 -10 4 -1 19 -3 33
-4 14 -2 39 -9 55 -16 l30 -12 -49 -10 c-35 -7 -55 -6 -68 2 -24 15 -33 14
-19 -3 9 -11 5 -16 -19 -26 -25 -10 -34 -10 -55 4 -21 14 -25 14 -25 2 0 -19
-31 -29 -64 -20 -18 4 -26 2 -26 -6 0 -9 -13 -11 -44 -8 -38 5 -48 2 -67 -18
-12 -13 -28 -24 -36 -24 -14 0 -18 -16 -5 -22 5 -1 12 -15 16 -30 5 -21 3 -28
-8 -28 -8 0 -16 -5 -18 -12 -7 -20 -27 1 -39 42 -7 22 -16 37 -20 34 -5 -2 -4
-16 1 -30 6 -14 10 -35 10 -46 0 -17 -2 -18 -15 -8 -8 7 -15 28 -15 47 0 20
-4 32 -10 28 -18 -11 -10 -62 16 -100 43 -64 48 -85 24 -107 -22 -21 -25 -34
-10 -43 6 -4 8 -10 5 -16 -12 -18 8 -79 41 -130 l35 -52 -50 -83 c-28 -45 -51
-86 -51 -91 0 -4 -14 -26 -30 -47 -17 -22 -30 -45 -30 -52 0 -7 -11 -43 -24
-82 -21 -62 -23 -84 -20 -198 6 -189 10 -249 17 -261 4 -6 9 -42 12 -80 21
-293 58 -568 87 -643 11 -30 21 -78 22 -107 1 -33 8 -58 19 -71 17 -18 17 -20
-2 -43 -16 -20 -22 -22 -42 -12 -13 6 -45 21 -71 32 -27 11 -48 24 -48 29 0
11 -37 26 -103 41 -49 12 -88 1 -114 -31 -33 -39 -58 -135 -58 -221 0 -107 9
-118 82 -106 27 4 53 8 58 8 6 1 11 18 13 38 4 66 53 140 111 171 32 16 37 12
40 -40 1 -16 17 -32 51 -53 27 -16 52 -36 55 -44 3 -8 -17 -36 -49 -68 -64
-64 -74 -90 -76 -195 -1 -88 16 -134 55 -144 14 -3 25 -10 25 -15 0 -5 7 -9
15 -9 8 0 28 26 45 58 17 31 29 49 26 40 -12 -41 86 -94 135 -72 18 9 18 11
-11 72 l-30 63 16 92 c9 51 18 105 21 120 9 45 26 26 51 -54 32 -103 40 -119
56 -119 29 0 37 50 25 155 -23 193 -25 320 -10 508 5 70 7 143 4 163 -3 19 0
52 6 72 6 20 17 77 24 126 11 77 16 90 32 91 11 1 30 5 43 9 14 5 29 3 37 -4
11 -10 20 -7 43 11 l28 24 -25 21 -24 21 21 21 c12 12 29 22 37 22 17 0 20 26
4 35 -6 4 0 19 15 40 15 19 26 38 26 43 0 6 16 29 35 52 19 23 38 53 41 66 3
13 11 24 18 24 10 1 28 34 77 145 23 52 84 125 105 125 7 0 28 16 46 35 l33
35 152 4 c122 4 157 8 175 21 22 16 21 17 -39 11 -63 -7 -113 0 -113 14 0 5 7
16 16 25 12 12 20 13 29 5 10 -8 27 -6 64 9 28 12 74 30 102 42 28 11 66 29
85 40 19 10 43 19 54 19 10 0 22 5 25 10 3 6 16 10 29 10 13 0 31 9 40 19 20
22 85 33 199 33 42 0 77 4 77 9 0 5 12 9 28 9 24 1 25 2 10 14 -26 19 -22 24
15 25 71 2 107 6 107 14 0 4 15 7 33 7 17 0 45 7 61 15 50 26 342 6 361 -24 3
-5 14 -7 25 -4 11 3 38 -6 62 -20 24 -13 57 -28 74 -31 18 -4 40 -16 50 -27
11 -12 33 -35 50 -52 17 -18 50 -56 73 -86 23 -29 53 -62 67 -73 13 -11 31
-33 39 -49 24 -45 75 -99 95 -99 21 0 45 -33 52 -72 3 -18 1 -25 -8 -21 -37
14 -15 -54 28 -85 10 -7 18 -21 18 -30 0 -9 11 -35 25 -57 25 -40 33 -85 16
-85 -6 0 -13 5 -16 10 -11 17 -28 11 -20 -7 4 -10 9 -47 11 -81 2 -35 10 -74
17 -85 9 -16 11 -80 9 -237 -1 -118 1 -237 6 -265 l8 -50 16 25 c14 21 17 70
23 300 9 380 6 774 -6 838 -6 30 -19 73 -30 95 -10 23 -19 58 -19 78 0 20 -7
42 -15 49 -28 23 -17 57 18 51 22 -3 -12 35 -54 61 -20 13 -25 23 -22 42 3 14
9 26 14 26 20 0 7 33 -21 57 -16 13 -30 29 -30 35 0 5 -9 21 -19 34 -14 18
-18 34 -14 59 4 23 -1 48 -15 78 -11 24 -28 68 -37 99 -12 44 -27 66 -65 102
-27 25 -60 51 -74 57 -30 14 -38 30 -41 90 -4 71 -12 86 -61 113 -38 21 -49
23 -65 13 -29 -18 -23 -27 21 -27 60 0 108 -56 82 -97 -10 -15 -132 42 -132
62 0 10 -10 13 -36 9 -29 -3 -37 -1 -41 15 -3 12 -11 17 -23 14 -12 -3 -20 2
-25 19 -16 48 -128 123 -205 138 -30 6 -120 10 -200 9 -80 -1 -181 1 -225 4
-44 3 -99 1 -123 -3z m203 -20 c3 -5 -1 -10 -9 -10 -9 0 -16 5 -16 10 0 6 4
10 9 10 6 0 13 -4 16 -10z m605 -213 c0 -5 -4 -5 -10 -2 -5 3 -10 14 -10 23 0
15 2 15 10 2 5 -8 10 -19 10 -23z m-276 -13 c3 -8 2 -12 -4 -9 -6 3 -10 10
-10 16 0 14 7 11 14 -7z m-1224 -64 c0 -5 -5 -10 -11 -10 -5 0 -7 5 -4 10 3 6
8 10 11 10 2 0 4 -4 4 -10z m1655 -44 c-9 -20 -14 -42 -13 -49 4 -15 -40 -72
-48 -64 -4 3 3 26 15 50 23 48 26 61 11 52 -5 -3 -10 1 -10 9 0 15 11 20 26
14 3 -2 10 5 16 15 17 31 19 12 3 -27z m-2118 -32 c-3 -3 -12 -4 -19 -1 -8 3
-5 6 6 6 11 1 17 -2 13 -5z m2302 -70 c3 -16 1 -17 -13 -5 -19 16 -21 34 -3
29 6 -3 14 -13 16 -24z m-2639 -18 c0 -2 -7 -7 -16 -10 -8 -3 -12 -2 -9 4 6
10 25 14 25 6z m-36 -31 c4 -10 -1 -15 -14 -15 -13 0 -18 5 -14 15 4 8 10 15
14 15 4 0 10 -7 14 -15z m196 -50 c0 -16 -43 -21 -74 -9 -28 11 -17 19 29 22
35 2 45 -1 45 -13z m37 9 c-3 -3 -12 -4 -19 -1 -8 3 -5 6 6 6 11 1 17 -2 13
-5z m-207 -64 c0 -5 -4 -10 -10 -10 -5 0 -10 5 -10 10 0 6 5 10 10 10 6 0 10
-4 10 -10z m2737 -42 c-3 -8 -6 -5 -6 6 -1 11 2 17 5 13 3 -3 4 -12 1 -19z
m-2700 6 c-3 -3 -12 -4 -19 -1 -8 3 -5 6 6 6 11 1 17 -2 13 -5z m-23 -37 c18
-13 18 -14 1 -21 -12 -4 -26 0 -39 14 l-20 20 20 0 c11 0 28 -6 38 -13z m-117
-50 c13 -55 15 -90 4 -83 -6 4 -11 14 -11 22 0 8 -7 14 -15 14 -22 0 -18 -11
15 -44 29 -29 40 -66 20 -66 -23 0 -59 33 -69 62 -12 33 -7 65 16 117 13 29
17 32 25 17 5 -9 12 -26 15 -39z m-17 -372 c-7 -9 -15 -13 -17 -11 -7 7 7 26
19 26 6 0 6 -6 -2 -15z m1030 -79 c0 -3 -4 -8 -10 -11 -5 -3 -10 -1 -10 4 0 6
5 11 10 11 6 0 10 -2 10 -4z m1980 -62 c0 -8 -4 -12 -10 -9 -5 3 -10 10 -10
16 0 5 5 9 10 9 6 0 10 -7 10 -16z m0 -74 c0 -5 -2 -10 -4 -10 -3 0 -8 5 -11
10 -3 6 -1 10 4 10 6 0 11 -4 11 -10z m-3027 -1417 c3 -10 13 -38 22 -62 8
-24 13 -52 9 -63 -5 -18 -8 -19 -22 -5 -8 9 -18 35 -23 59 -4 24 -10 53 -14
66 -5 16 -3 22 8 22 8 0 17 -8 20 -17z"/>
<path d="M2020 5920 c0 -5 9 -10 20 -10 11 0 20 5 20 10 0 6 -9 10 -20 10 -11
0 -20 -4 -20 -10z"/>
<path d="M3928 4114 c-85 -28 -105 -40 -113 -63 -3 -11 -12 -18 -19 -15 -19 7
-28 -23 -13 -49 18 -32 31 -44 43 -40 6 2 19 -8 29 -23 15 -23 22 -26 53 -20
26 4 32 2 22 -4 -12 -8 -10 -10 8 -10 32 0 21 -14 -31 -38 -55 -26 -134 -102
-143 -138 -4 -15 -2 -35 5 -45 6 -10 11 -28 11 -39 0 -11 5 -20 11 -20 5 0 7
-4 4 -10 -3 -5 5 -15 19 -22 14 -6 26 -15 26 -20 0 -5 10 -22 22 -38 15 -21
27 -28 40 -24 12 3 18 0 18 -9 0 -18 30 -27 88 -27 35 0 42 3 42 19 0 11 5 23
10 26 6 4 8 10 5 15 -3 6 12 13 35 16 22 4 43 11 46 15 3 5 14 9 25 9 10 0 19
5 19 10 0 6 -7 10 -16 10 -12 0 -15 6 -10 20 3 11 9 28 12 39 5 15 -2 20 -37
29 -24 6 -46 9 -51 6 -4 -3 -8 1 -8 9 0 8 14 20 31 27 25 11 35 11 52 1 18
-12 19 -11 14 8 -7 29 25 27 78 -3 28 -16 41 -30 43 -49 3 -23 8 -27 35 -27
18 0 42 -3 55 -6 16 -5 22 -2 22 10 0 9 7 16 16 16 8 0 12 5 9 10 -19 31 -259
120 -321 120 -19 0 -34 5 -34 10 0 6 30 10 70 10 79 0 163 -25 214 -63 17 -13
41 -29 54 -36 22 -12 23 -11 12 8 -8 16 -8 21 1 19 6 -2 13 2 16 8 7 20 -124
83 -207 100 -34 6 -84 33 -65 35 6 0 1 5 -10 10 -17 8 -16 9 8 6 15 -3 27 -1
27 3 0 4 15 11 33 14 48 10 102 39 102 56 0 8 14 21 30 30 17 8 32 18 33 23 6
13 41 8 49 -8 6 -11 19 -13 46 -8 32 5 35 7 21 18 -10 6 -14 17 -10 23 4 8 2
10 -7 6 -8 -3 -32 4 -53 15 -21 12 -55 21 -75 21 -20 0 -56 7 -79 15 -52 18
-61 19 -57 3 2 -15 -51 -12 -69 3 -6 5 -22 9 -35 8 -13 0 -49 4 -80 8 -47 8
-66 6 -121 -13z m198 -233 c-3 -5 -15 -7 -26 -4 -28 7 -25 13 6 13 14 0 23 -4
20 -9z m-206 -236 c10 -12 10 -15 -4 -15 -9 0 -16 7 -16 15 0 8 2 15 4 15 2 0
9 -7 16 -15z"/>
<path d="M4425 4090 c50 -25 67 -25 35 0 -14 11 -36 20 -50 20 -21 0 -19 -3
15 -20z"/>
<path d="M2635 4090 c-3 -5 -17 -10 -31 -10 -14 0 -27 -7 -30 -15 -4 -8 -12
-15 -18 -15 -7 0 -29 -16 -50 -35 -21 -19 -42 -35 -47 -35 -4 0 -32 -25 -63
-55 -30 -30 -62 -55 -71 -55 -12 0 -14 -4 -5 -19 15 -29 13 -32 -15 -25 -20 5
-25 3 -25 -14 0 -12 9 -22 21 -25 26 -7 16 -27 -14 -27 -20 0 -20 0 -1 -15 14
-11 16 -15 4 -15 -11 0 -11 -3 3 -11 13 -8 36 -8 79 0 33 6 65 8 71 4 5 -3
-12 -26 -39 -50 -37 -32 -55 -42 -71 -38 -18 4 -26 -2 -43 -35 -11 -22 -25
-40 -31 -40 -6 0 -6 -6 0 -19 15 -26 75 -52 129 -55 83 -4 174 -28 179 -46 8
-31 141 -69 243 -70 37 0 70 -4 75 -9 6 -5 26 -14 46 -20 22 -7 39 -20 42 -31
4 -16 14 -20 51 -20 26 0 48 -5 53 -13 11 -17 90 -40 106 -30 6 4 30 13 52 18
36 9 42 16 71 76 18 36 44 79 59 95 36 39 85 146 85 186 0 18 -9 55 -19 83
-16 41 -27 54 -62 72 -24 12 -50 23 -56 23 -7 0 -13 5 -13 10 0 6 -13 10 -30
10 -22 0 -30 5 -30 18 0 10 -5 23 -12 30 -9 9 -8 12 8 12 16 0 19 7 18 37 -2
42 -33 115 -45 107 -5 -2 -5 -12 -2 -21 7 -17 1 -13 -75 52 l-35 30 -143 0
c-78 0 -137 -3 -131 -8 7 -4 -15 -4 -48 -1 -33 4 -61 11 -63 16 -5 11 -69 10
-77 -2z m230 -250 c-3 -5 1 -10 10 -10 9 0 13 -5 9 -11 -4 -7 -24 -9 -53 -6
-25 3 -40 3 -33 0 6 -2 12 -10 12 -15 0 -6 -3 -9 -6 -6 -3 4 -21 0 -39 -8 -19
-8 -52 -14 -74 -14 -22 0 -41 -4 -43 -9 -1 -5 -21 -6 -43 -2 -46 8 -42 12 40
34 33 9 89 25 125 36 74 22 104 25 95 11z m-405 -80 c0 -5 -4 -10 -9 -10 -6 0
-13 5 -16 10 -3 6 1 10 9 10 9 0 16 -4 16 -10z m65 -22 c-16 -4 -31 -5 -33 -3
-8 7 42 23 53 17 5 -3 -4 -9 -20 -14z m65 8 c0 -2 -7 -7 -16 -10 -8 -3 -12 -2
-9 4 6 10 25 14 25 6z m455 -76 c67 -42 46 -110 -38 -126 l-39 -7 18 34 c9 19
16 53 15 76 0 24 2 43 5 43 4 0 21 -9 39 -20z m-84 -25 c-1 -5 -15 -10 -31
-10 -27 0 -28 1 -13 13 20 14 44 12 44 -3z m-41 -155 c0 -5 -5 -10 -11 -10 -5
0 -7 5 -4 10 3 6 8 10 11 10 2 0 4 -4 4 -10z m47 -6 c-3 -3 -12 -4 -19 -1 -8
3 -5 6 6 6 11 1 17 -2 13 -5z"/>
<path d="M3109 3018 l-51 -53 5 -60 c6 -70 30 -98 76 -89 16 4 40 0 57 -9 31
-17 105 -92 123 -126 7 -12 18 -21 26 -21 7 0 16 -6 18 -12 4 -8 6 -7 6 4 1
19 40 13 48 -8 9 -24 34 -15 45 16 6 20 24 38 49 51 21 10 39 24 39 29 0 6 11
16 25 22 25 11 35 48 14 48 -6 0 -9 7 -5 15 6 17 -39 75 -60 75 -8 0 -14 4
-14 9 0 23 -34 41 -75 41 -46 0 -106 -24 -83 -33 8 -3 5 -6 -6 -6 -11 -1 -32
-13 -47 -27 -22 -21 -32 -24 -62 -19 -54 10 -70 57 -53 158 10 64 -8 63 -75
-5z"/>
<path d="M3823 2910 c-38 -23 -46 -56 -12 -47 12 3 32 1 45 -5 19 -9 28 -8 44
7 25 23 25 41 1 55 -28 14 -42 13 -78 -10z"/>
<path d="M1542 2853 c-10 -4 -9 -9 4 -24 18 -20 44 -26 44 -10 0 8 -28 42 -33
40 -1 0 -8 -3 -15 -6z"/>
<path d="M1930 2849 c0 -27 -73 -77 -123 -84 -38 -6 -48 -12 -53 -31 -9 -34 2
-44 47 -44 48 0 73 12 118 58 29 31 35 33 43 18 11 -19 3 -64 -18 -104 -8 -15
-14 -32 -14 -38 0 -6 -7 -17 -15 -24 -20 -17 -19 -30 3 -30 23 0 39 19 77 92
l29 58 -32 45 c-18 25 -32 49 -32 53 0 4 -7 16 -15 26 -12 15 -15 16 -15 5z"/>
<path d="M2970 2515 c0 -11 -11 -15 -37 -15 l-38 -1 27 -15 c25 -13 26 -17 16
-42 -7 -15 -19 -33 -27 -40 -13 -10 -17 -10 -23 5 -5 14 -7 13 -6 -7 0 -14 -2
-32 -6 -42 -5 -12 2 -23 24 -40 18 -12 38 -35 46 -50 8 -16 38 -38 76 -57 70
-34 95 -49 117 -69 29 -27 91 -62 110 -62 10 0 25 -10 33 -22 12 -18 25 -22
86 -24 40 -2 76 -5 82 -9 5 -3 20 0 32 6 13 7 52 12 88 11 61 -1 66 1 77 25
13 27 8 48 -8 37 -5 -3 -21 2 -35 11 -13 9 -29 13 -34 10 -11 -7 -80 36 -80
50 0 6 -32 18 -71 28 -55 13 -75 15 -86 6 -11 -9 -17 -8 -28 7 -14 18 -14 18
-15 -4 0 -12 7 -25 15 -28 8 -4 15 -11 15 -16 0 -12 -104 0 -108 13 -2 5 -19
9 -37 9 -24 0 -37 7 -50 26 -9 14 -14 28 -11 31 3 3 26 -2 52 -11 26 -9 55
-16 65 -16 26 0 35 21 14 36 -22 16 -13 41 18 53 29 11 345 16 370 6 21 -9 85
2 112 19 11 7 37 16 57 20 20 4 47 15 60 26 22 19 22 19 3 20 -12 0 -38 -9
-60 -20 -35 -18 -45 -19 -100 -8 -33 6 -67 17 -75 22 -34 25 -77 44 -115 51
-22 4 -44 9 -49 13 -16 10 -186 -1 -273 -17 -49 -10 -89 -3 -148 25 -49 23
-63 36 -57 52 2 6 -1 12 -7 12 -6 0 -11 -7 -11 -15z"/>
<path d="M4143 2456 c-107 -37 -106 -65 1 -52 57 8 93 34 83 61 -8 18 -7 18
-84 -9z"/>
<path d="M3265 2200 c3 -5 8 -10 11 -10 2 0 4 5 4 10 0 6 -5 10 -11 10 -5 0
-7 -4 -4 -10z"/>
<path d="M2510 2055 c0 -8 7 -15 15 -15 8 0 15 7 15 15 0 8 -7 15 -15 15 -8 0
-15 -7 -15 -15z"/>
<path d="M2774 1985 c-9 -23 4 -65 20 -65 8 0 16 -6 19 -12 7 -20 29 5 32 36
5 39 -58 75 -71 41z"/>
<path d="M2782 1704 c3 -3 -2 -26 -11 -51 -18 -50 -41 -69 -41 -34 0 18 -6 21
-40 21 -22 0 -40 -2 -40 -5 0 -2 14 -20 31 -39 l30 -35 -17 -36 c-9 -20 -28
-41 -41 -46 -19 -7 -23 -16 -23 -48 0 -22 -5 -41 -11 -43 -5 -2 -12 -25 -14
-52 -3 -39 -10 -55 -35 -77 -16 -15 -30 -31 -30 -34 0 -3 9 -23 19 -44 30 -58
27 -204 -5 -256 -6 -11 -15 -35 -19 -54 -4 -18 -14 -42 -23 -52 -16 -18 -17
-18 -24 -2 -5 15 -7 14 -7 -4 -1 -27 -7 -28 -26 -9 -32 31 -58 129 -85 318
-16 109 -33 206 -38 214 -15 28 -42 -58 -42 -134 1 -242 76 -456 240 -687 44
-60 92 -123 107 -140 16 -16 77 -87 136 -157 60 -71 112 -128 117 -128 5 0 12
-9 15 -20 10 -32 24 -23 21 14 -2 20 -14 45 -30 62 -14 16 -26 38 -26 49 0 11
-9 53 -20 93 -11 39 -20 88 -20 108 0 33 -2 35 -16 23 -15 -12 -16 -11 -9 9 5
18 1 29 -14 43 -12 11 -19 25 -15 30 8 13 105 -1 122 -18 7 -7 33 -27 58 -43
24 -17 55 -50 68 -73 23 -39 61 -75 107 -102 10 -5 32 -24 51 -40 18 -17 36
-31 39 -30 3 0 13 -8 23 -18 10 -9 24 -17 32 -17 8 0 14 -4 14 -9 0 -5 12 -12
28 -16 15 -3 38 -14 51 -24 l24 -18 -36 -27 c-25 -19 -33 -32 -30 -46 5 -19
17 -20 445 -20 l440 0 39 43 c99 109 186 256 230 392 57 171 93 560 71 760
-16 137 -53 275 -74 275 -14 0 -9 -64 18 -232 32 -204 29 -297 -17 -443 -47
-152 -105 -249 -223 -375 -73 -79 -325 -277 -363 -286 -13 -4 -23 -10 -23 -15
0 -5 -11 -9 -25 -9 -15 0 -38 -6 -53 -14 -15 -7 -43 -16 -62 -20 -42 -8 -260
13 -260 26 0 4 6 8 14 8 9 0 15 15 18 44 2 36 0 46 -14 50 -30 7 -21 33 15 40
39 8 92 59 84 80 -4 9 -18 18 -32 22 -43 11 -85 60 -85 100 0 20 -5 44 -11 55
-9 17 -4 30 28 75 21 30 42 62 48 72 5 9 16 28 24 42 20 32 16 46 -20 84 -16
17 -32 40 -35 51 -7 21 -66 100 -94 126 -10 8 -21 38 -25 67 l-7 52 30 0 c22
0 42 11 71 39 22 22 54 45 71 53 17 7 30 21 30 31 0 9 11 23 25 29 14 6 25 15
25 21 0 5 9 20 19 34 11 13 18 30 15 38 -4 9 13 20 51 34 31 12 59 21 63 21 5
0 28 9 51 21 l43 21 -27 14 c-15 8 -35 14 -45 14 -10 0 -20 9 -23 20 -8 31
-35 36 -58 9 -15 -17 -22 -20 -31 -11 -17 17 -87 15 -104 -3 -9 -8 -22 -15
-30 -15 -17 0 -19 27 -2 32 18 6 -5 60 -30 69 -17 6 -24 4 -32 -11 -13 -25
-40 -25 -71 -2 -15 11 -45 19 -84 21 -33 1 -67 8 -75 15 -16 14 -52 23 -135
32 -27 3 -57 8 -65 11 -8 3 -32 5 -54 3 -25 -1 -36 2 -32 9 5 7 -1 11 -14 11
-13 0 -24 8 -27 20 -3 11 -11 20 -18 20 -8 0 -17 9 -20 20 -7 22 -44 27 -63 8
-9 -9 -12 -9 -12 0 0 7 -10 12 -22 12 -12 0 -19 -2 -16 -6z m-52 -1130 c0 -8
-4 -12 -10 -9 -5 3 -10 10 -10 16 0 5 5 9 10 9 6 0 10 -7 10 -16z"/>
<path d="M3550 120 c0 -5 5 -10 11 -10 5 0 7 5 4 10 -3 6 -8 10 -11 10 -2 0
-4 -4 -4 -10z"/>
<path d="M2954 41 c4 -5 0 -12 -6 -14 -7 -3 -2 -6 11 -6 20 -1 21 1 11 14 -14
16 -25 21 -16 6z"/>
</g>
</svg>
